<svg width="25" height="24" viewBox="0 0 25 24" fill="none" xmlns="http://www.w3.org/2000/svg">
<g clip-path="url(#clip0_419_10638)">
<path d="M1.5 20V19C1.5 15.134 4.63401 12 8.5 12C12.366 12 15.5 15.134 15.5 19V20" stroke="url(#paint0_linear_419_10638)" stroke-width="1.5" stroke-linecap="round"/>
<path d="M13.5 14C13.5 11.2386 15.7386 9 18.5 9C21.2614 9 23.5 11.2386 23.5 14V14.5" stroke="url(#paint1_linear_419_10638)" stroke-width="1.5" stroke-linecap="round"/>
<path d="M8.5 12C10.7091 12 12.5 10.2091 12.5 8C12.5 5.79086 10.7091 4 8.5 4C6.29086 4 4.5 5.79086 4.5 8C4.5 10.2091 6.29086 12 8.5 12Z" stroke="url(#paint2_linear_419_10638)" stroke-width="1.5" stroke-linecap="round" stroke-linejoin="round"/>
<path d="M18.5 9C20.1569 9 21.5 7.65685 21.5 6C21.5 4.34315 20.1569 3 18.5 3C16.8431 3 15.5 4.34315 15.5 6C15.5 7.65685 16.8431 9 18.5 9Z" stroke="url(#paint3_linear_419_10638)" stroke-width="1.5" stroke-linecap="round" stroke-linejoin="round"/>
</g>
<defs>
<linearGradient id="paint0_linear_419_10638" x1="8.5" y1="12" x2="8.5" y2="20" gradientUnits="userSpaceOnUse">
<stop stop-color="#17699D"/>
<stop offset="1" stop-color="#093243"/>
</linearGradient>
<linearGradient id="paint1_linear_419_10638" x1="18.5" y1="9" x2="18.5" y2="14.5" gradientUnits="userSpaceOnUse">
<stop stop-color="#17699D"/>
<stop offset="1" stop-color="#093243"/>
</linearGradient>
<linearGradient id="paint2_linear_419_10638" x1="8.5" y1="4" x2="8.5" y2="12" gradientUnits="userSpaceOnUse">
<stop stop-color="#17699D"/>
<stop offset="1" stop-color="#093243"/>
</linearGradient>
<linearGradient id="paint3_linear_419_10638" x1="18.5" y1="3" x2="18.5" y2="9" gradientUnits="userSpaceOnUse">
<stop stop-color="#17699D"/>
<stop offset="1" stop-color="#093243"/>
</linearGradient>
<clipPath id="clip0_419_10638">
<rect width="24" height="24" fill="white" transform="translate(0.5)"/>
</clipPath>
</defs>
</svg>
