<svg width="25" height="24" viewBox="0 0 25 24" fill="none" xmlns="http://www.w3.org/2000/svg">
<path d="M9.5 21.0005H15.5M9.5 21.0005H7.5C5.29086 21.0005 3.5 19.2096 3.5 17.0005V10.7081C3.5 9.30932 4.23061 8.0122 5.42679 7.28724L10.4268 4.25694C11.7011 3.48466 13.2989 3.48466 14.5732 4.25694L19.5732 7.28724C20.7694 8.0122 21.5 9.30932 21.5 10.7081V17.0005C21.5 19.2096 19.7091 21.0005 17.5 21.0005H15.5H9.5ZM9.5 21.0005V17.0005C9.5 15.3436 10.8431 14.0005 12.5 14.0005C14.1569 14.0005 15.5 15.3436 15.5 17.0005V21.0005H9.5Z" stroke="url(#paint0_linear_419_8884)" stroke-width="1.5" stroke-linecap="round" stroke-linejoin="round"/>
<defs>
<linearGradient id="paint0_linear_419_8884" x1="12.5" y1="3.67773" x2="12.5" y2="21.0005" gradientUnits="userSpaceOnUse">
<stop stop-color="#17699D"/>
<stop offset="1" stop-color="#093243"/>
</linearGradient>
</defs>
</svg>
