<svg width="20" height="20" viewBox="0 0 20 20" fill="none" xmlns="http://www.w3.org/2000/svg">
<path fill-rule="evenodd" clip-rule="evenodd" d="M4.16602 18.3337C2.7853 18.3337 1.66602 17.2144 1.66602 15.8337V5.83366C1.66602 4.45295 2.7853 3.33366 4.16602 3.33366H4.99935V2.50033C4.99935 2.04009 5.37244 1.66699 5.83268 1.66699C6.29292 1.66699 6.66601 2.04009 6.66601 2.50033V3.33366H13.3327V2.50033C13.3327 2.04009 13.7058 1.66699 14.166 1.66699C14.6263 1.66699 14.9993 2.04009 14.9993 2.50033V3.33366H15.8327C17.2134 3.33366 18.3327 4.45295 18.3327 5.83366V15.8337C18.3327 17.2144 17.2134 18.3337 15.8327 18.3337H4.16602ZM6.66602 14.167H3.33268V15.8337C3.33268 16.2939 3.70578 16.667 4.16602 16.667H6.66602V14.167ZM11.666 14.167H8.33268V16.667H11.666V14.167ZM16.666 14.167H13.3327V16.667H15.8327C16.2929 16.667 16.666 16.2939 16.666 15.8337V14.167ZM6.66602 10.0003H3.33268V12.5003H6.66602V10.0003ZM11.666 10.0003H8.33268V12.5003H11.666V10.0003ZM16.666 10.0003H13.3327V12.5003H16.666V10.0003ZM4.99935 5.0003H4.16602C3.70578 5.0003 3.33268 5.3734 3.33268 5.83363V8.33363H16.666V5.83363C16.666 5.3734 16.2929 5.0003 15.8327 5.0003H14.9994V5.83363C14.9994 6.29387 14.6263 6.66697 14.166 6.66697C13.7058 6.66697 13.3327 6.29387 13.3327 5.83363V5.0003H6.66602V5.83363C6.66602 6.29387 6.29292 6.66697 5.83268 6.66697C5.37245 6.66697 4.99935 6.29387 4.99935 5.83363V5.0003Z" fill="white"/>
</svg>
