<svg width="20" height="20" viewBox="0 0 20 20" fill="none" xmlns="http://www.w3.org/2000/svg">
<path d="M7.8 0H12.2C14.8118 0 16.1176 0 17.1289 0.475865C18.1817 0.971267 19.0287 1.81832 19.5241 2.8711C20 3.88237 20 5.18824 20 7.8V12.2C20 14.8118 20 16.1176 19.5241 17.1289C19.0287 18.1817 18.1817 19.0287 17.1289 19.5241C16.1176 20 14.8118 20 12.2 20H7.8C5.18824 20 3.88237 20 2.8711 19.5241C1.81832 19.0287 0.971267 18.1817 0.475865 17.1289C0 16.1176 0 14.8118 0 12.2V7.8C0 5.18824 0 3.88237 0.475865 2.8711C0.971267 1.81832 1.81832 0.971267 2.8711 0.475865C3.88237 0 5.18824 0 7.8 0Z" fill="white"/>
<path fill-rule="evenodd" clip-rule="evenodd" d="M15.7071 7.45711C16.0976 7.06658 16.0976 6.43342 15.7071 6.04289C15.3166 5.65237 14.6834 5.65237 14.2929 6.04289L8 12.3358L5.70711 10.0429C5.31658 9.65237 4.68342 9.65237 4.29289 10.0429C3.90237 10.4334 3.90237 11.0666 4.29289 11.4571L7.29289 14.4571C7.68342 14.8476 8.31658 14.8476 8.70711 14.4571L15.7071 7.45711Z" fill="black"/>
</svg>
