<svg width="24" height="25" viewBox="0 0 24 25" fill="none" xmlns="http://www.w3.org/2000/svg">
<path d="M17.2929 5.8925C17.6834 5.50198 18.3164 5.50198 18.707 5.8925C19.0975 6.28303 19.0975 6.91604 18.707 7.30657L13.414 12.5995L18.707 17.8925C19.0975 18.283 19.0975 18.916 18.707 19.3066C18.3164 19.6971 17.6834 19.6971 17.2929 19.3066L11.9999 14.0136L6.70696 19.3066C6.31643 19.6971 5.68342 19.6971 5.29289 19.3066C4.90237 18.916 4.90237 18.283 5.29289 17.8925L10.5859 12.5995L5.29289 7.30657C4.90237 6.91604 4.90237 6.28303 5.29289 5.8925C5.68342 5.50198 6.31643 5.50198 6.70696 5.8925L11.9999 11.1855L17.2929 5.8925Z" fill="white"/>
</svg>
