<svg width="20" height="21" viewBox="0 0 20 21" fill="none" xmlns="http://www.w3.org/2000/svg">
<path fill-rule="evenodd" clip-rule="evenodd" d="M11.6673 2.2666C11.8883 2.2666 12.1003 2.3544 12.2566 2.51068L16.4232 6.67735C16.5795 6.83363 16.6673 7.04559 16.6673 7.2666V16.4333C16.6673 17.814 15.548 18.9333 14.1673 18.9333H5.83398C4.45327 18.9333 3.33398 17.814 3.33398 16.4333V4.7666C3.33398 3.38589 4.45327 2.2666 5.83398 2.2666H11.6673ZM9.99982 3.93327H5.83398C5.37375 3.93327 5.00065 4.30636 5.00065 4.7666V16.4333C5.00065 16.8935 5.37375 17.2666 5.83398 17.2666H14.1673C14.6276 17.2666 15.0007 16.8935 15.0007 16.4333V8.93327H10.834C10.4066 8.93327 10.0544 8.61157 10.0063 8.19712L10.0007 8.09994L9.99982 3.93327ZM14.6557 7.26655L11.6665 4.27822L11.6673 7.26655H14.6557Z" fill="black"/>
</svg>
