<svg width="31" height="30" viewBox="0 0 31 30" fill="none" xmlns="http://www.w3.org/2000/svg">
<path fill-rule="evenodd" clip-rule="evenodd" d="M18.001 2.5C18.3325 2.5 18.6504 2.6317 18.8849 2.86612L25.1349 9.11612C25.3693 9.35054 25.501 9.66848 25.501 10V23.75C25.501 25.8211 23.822 27.5 21.751 27.5H9.25098C7.17991 27.5 5.50098 25.8211 5.50098 23.75V6.25C5.50098 4.17893 7.17991 2.5 9.25098 2.5H18.001ZM15.5002 4.99994H9.25146C8.56111 4.99994 8.00146 5.55958 8.00146 6.24994V23.7499C8.00146 24.4403 8.56111 24.9999 9.25146 24.9999H21.7515C22.4418 24.9999 23.0015 24.4403 23.0015 23.7499V12.4999H16.7515C16.1104 12.4999 15.5821 12.0174 15.5099 11.3957L15.5015 11.2499L15.5002 4.99994ZM22.4828 9.9999L17.999 5.5174L18.0003 9.9999H22.4828Z" fill="url(#paint0_linear_419_11551)"/>
<defs>
<linearGradient id="paint0_linear_419_11551" x1="15.501" y1="2.5" x2="15.501" y2="27.5" gradientUnits="userSpaceOnUse">
<stop stop-color="#17699D"/>
<stop offset="1" stop-color="#093243"/>
</linearGradient>
</defs>
</svg>
