<svg width="24" height="25" viewBox="0 0 24 25" fill="none" xmlns="http://www.w3.org/2000/svg">
<path fill-rule="evenodd" clip-rule="evenodd" d="M14 2.5C14.2652 2.5 14.5196 2.60536 14.7071 2.79289L19.7071 7.79289C19.8946 7.98043 20 8.23478 20 8.5V19.5C20 21.1569 18.6569 22.5 17 22.5H7C5.34315 22.5 4 21.1569 4 19.5V5.5C4 3.84315 5.34315 2.5 7 2.5H14ZM12.0004 4.49994H7.00136C6.44907 4.49994 6.00136 4.94766 6.00136 5.49994V19.4999C6.00136 20.0522 6.44907 20.4999 7.00136 20.4999H17.0014C17.5536 20.4999 18.0014 20.0522 18.0014 19.4999V10.4999H13.0014C12.4885 10.4999 12.0659 10.1139 12.0081 9.61656L12.0014 9.49994L12.0004 4.49994ZM17.5856 8.49992L13.9986 4.91392L13.9996 8.49992H17.5856Z" fill="white"/>
</svg>
