<svg width="20" height="21" viewBox="0 0 20 21" fill="none" xmlns="http://www.w3.org/2000/svg">
<path fill-rule="evenodd" clip-rule="evenodd" d="M2.89257 11.7844L5.26149 9.4155C5.58858 9.08842 6.11888 9.08842 6.44596 9.4155C6.74968 9.71921 6.77137 10.1982 6.51104 10.5269L6.44596 10.6L4.07703 12.9689C3.09579 13.9501 3.09579 15.541 4.07703 16.5223C5.02323 17.4685 6.53632 17.5023 7.52301 16.6237L7.63042 16.5223L9.99935 14.1534C10.3264 13.8263 10.8567 13.8263 11.1838 14.1534C11.4875 14.4571 11.5092 14.936 11.2489 15.2648L11.1838 15.3378L8.81489 17.7067C7.17948 19.3421 4.52797 19.3421 2.89257 17.7067C1.3002 16.1144 1.2583 13.5587 2.76685 11.9156L2.89257 11.7844ZM11.1837 3.49315C12.8191 1.85775 15.4707 1.85775 17.1061 3.49315C18.7415 5.12856 18.7415 7.78007 17.1061 9.41547L14.7371 11.7844C14.41 12.1115 13.8797 12.1115 13.5527 11.7844C13.2256 11.4573 13.2256 10.927 13.5527 10.5999L15.9216 8.23101C16.9028 7.24977 16.9028 5.65886 15.9216 4.67762C14.9403 3.69638 13.3494 3.69638 12.3682 4.67762L9.99927 7.04654C9.67219 7.37362 9.14189 7.37362 8.81481 7.04654C8.48773 6.71946 8.48773 6.18916 8.81481 5.86208L11.1837 3.49315ZM11.1841 8.23101C11.5112 7.90393 12.0415 7.90393 12.3686 8.23101C12.6957 8.55809 12.6957 9.08839 12.3686 9.41547L8.81519 12.9689C8.48811 13.2959 7.95781 13.2959 7.63073 12.9689C7.30365 12.6418 7.30365 12.1115 7.63073 11.7844L11.1841 8.23101Z" fill="black"/>
</svg>
