<svg width="31" height="30" viewBox="0 0 31 30" fill="none" xmlns="http://www.w3.org/2000/svg">
<path fill-rule="evenodd" clip-rule="evenodd" d="M4.83885 16.7767L8.39224 13.2233C8.88286 12.7327 9.67832 12.7327 10.1689 13.2233C10.6245 13.6789 10.6571 14.3973 10.2666 14.8904L10.1689 15L6.61555 18.5534C5.14368 20.0253 5.14368 22.4116 6.61555 23.8835C8.03484 25.3028 10.3045 25.3535 11.7845 24.0356L11.9456 23.8835L15.499 20.3301C15.9896 19.8395 16.7851 19.8395 17.2757 20.3301C17.7313 20.7857 17.7638 21.5041 17.3733 21.9972L17.2757 22.1068L13.7223 25.6602C11.2692 28.1133 7.29196 28.1133 4.83885 25.6602C2.4503 23.2716 2.38745 19.4381 4.65028 16.9735L4.83885 16.7767ZM17.2754 4.33983C19.7285 1.88672 23.7057 1.88672 26.1588 4.33983C28.6119 6.79293 28.6119 10.7702 26.1588 13.2233L22.6054 16.7767C22.1148 17.2673 21.3194 17.2673 20.8288 16.7767C20.3381 16.2861 20.3381 15.4906 20.8288 15L24.3821 11.4466C25.854 9.97475 25.854 7.58839 24.3821 6.11652C22.9103 4.64466 20.5239 4.64466 19.0521 6.11652L15.4987 9.66991C15.008 10.1605 14.2126 10.1605 13.722 9.66991C13.2313 9.17929 13.2313 8.38384 13.722 7.89322L17.2754 4.33983ZM17.2767 11.4466C17.7673 10.956 18.5627 10.956 19.0534 11.4466C19.544 11.9373 19.544 12.7327 19.0534 13.2233L13.7233 18.5534C13.2327 19.044 12.4372 19.044 11.9466 18.5534C11.456 18.0628 11.456 17.2673 11.9466 16.7767L17.2767 11.4466Z" fill="url(#paint0_linear_419_11544)"/>
<defs>
<linearGradient id="paint0_linear_419_11544" x1="15.4988" y1="2.5" x2="15.4988" y2="27.5" gradientUnits="userSpaceOnUse">
<stop stop-color="#17699D"/>
<stop offset="1" stop-color="#093243"/>
</linearGradient>
</defs>
</svg>
