<svg width="24" height="25" viewBox="0 0 24 25" fill="none" xmlns="http://www.w3.org/2000/svg">
<path fill-rule="evenodd" clip-rule="evenodd" d="M3.47089 13.9214L6.3136 11.0787C6.7061 10.6862 7.34246 10.6862 7.73495 11.0787C8.09942 11.4431 8.12545 12.0178 7.81305 12.4123L7.73495 12.5L4.89224 15.3427C3.71475 16.5202 3.71475 18.4293 4.89224 19.6068C6.02768 20.7422 7.84339 20.7828 9.02742 19.7284L9.15631 19.6068L11.999 16.7641C12.3915 16.3716 13.0279 16.3716 13.4204 16.7641C13.7848 17.1285 13.8109 17.7033 13.4985 18.0978L13.4204 18.1854L10.5777 21.0281C8.61518 22.9906 5.43337 22.9906 3.47089 21.0281C1.56005 19.1173 1.50976 16.0505 3.32003 14.0788L3.47089 13.9214ZM13.4197 3.97186C15.3822 2.00938 18.564 2.00938 20.5265 3.97186C22.489 5.93435 22.489 9.11616 20.5265 11.0786L17.6838 13.9214C17.2913 14.3139 16.6549 14.3139 16.2624 13.9214C15.8699 13.5289 15.8699 12.8925 16.2624 12.5L19.1051 9.65729C20.2826 8.4798 20.2826 6.57071 19.1051 5.39322C17.9276 4.21573 16.0185 4.21573 14.8411 5.39322L11.9983 8.23593C11.6058 8.62843 10.9695 8.62843 10.577 8.23593C10.1845 7.84343 10.1845 7.20707 10.577 6.81458L13.4197 3.97186ZM13.4207 9.65731C13.8132 9.26482 14.4496 9.26482 14.8421 9.65731C15.2346 10.0498 15.2346 10.6862 14.8421 11.0787L10.578 15.3427C10.1855 15.7352 9.54917 15.7352 9.15668 15.3427C8.76418 14.9502 8.76418 14.3139 9.15668 13.9214L13.4207 9.65731Z" fill="white"/>
</svg>
