<svg width="24" height="24" viewBox="0 0 24 24" fill="none" xmlns="http://www.w3.org/2000/svg">
<path d="M19.9968 1.4203C19.9528 0.869773 19.4708 0.459191 18.9202 0.503237C18.3697 0.547284 17.9591 1.02928 18.0032 1.57981L18.1047 2.84828C16.3583 1.68123 14.2583 1.00006 12 1.00006C5.92487 1.00006 1 5.92493 1 12.0001C1 18.0752 5.92487 23.0001 12 23.0001C18.0751 23.0001 23 18.0752 23 12.0001C23 11.4478 22.5523 11.0001 22 11.0001C21.4477 11.0001 21 11.4478 21 12.0001C21 16.9706 16.9706 21.0001 12 21.0001C7.02944 21.0001 3 16.9706 3 12.0001C3 7.0295 7.02944 3.00006 12 3.00006C13.9409 3.00006 15.7376 3.61373 17.2079 4.65883L15.7521 5.03125C15.2171 5.16814 14.8943 5.71285 15.0312 6.2479C15.1681 6.78295 15.7128 7.10573 16.2479 6.96885L19.5405 6.12649C20.0121 6.00584 20.3283 5.56315 20.2895 5.07793L19.9968 1.4203ZM12 6.00005C12.5523 6.00005 13 6.44777 13 7.00005V11.5858L14.7071 13.2929C15.0976 13.6835 15.0976 14.3166 14.7071 14.7072C14.3166 15.0977 13.6834 15.0977 13.2929 14.7072L11.2929 12.7072C11.1054 12.5196 11 12.2653 11 12.0001V7.00005C11 6.44777 11.4477 6.00005 12 6.00005Z" fill="white"/>
</svg>
