<svg width="24" height="25" viewBox="0 0 24 25" fill="none" xmlns="http://www.w3.org/2000/svg">
<path d="M10 9.59961H6" stroke="black" stroke-width="1.5" stroke-linecap="round" stroke-linejoin="round"/>
<path d="M15.5 11.5996C14.1193 11.5996 13 10.4803 13 9.09961C13 7.7189 14.1193 6.59961 15.5 6.59961C16.8807 6.59961 18 7.7189 18 9.09961C18 10.4803 16.8807 11.5996 15.5 11.5996Z" stroke="black" stroke-width="1.5" stroke-linecap="round" stroke-linejoin="round"/>
<path d="M6 6.59961H9" stroke="black" stroke-width="1.5" stroke-linecap="round" stroke-linejoin="round"/>
<path d="M18 18.5996L13.5 15.5996L11 17.5996L6 13.5996" stroke="black" stroke-width="1.5" stroke-linecap="round" stroke-linejoin="round"/>
<path d="M3 20.9996V4.19961C3 3.86824 3.26863 3.59961 3.6 3.59961H20.4C20.7314 3.59961 21 3.86824 21 4.19961V20.9996C21 21.331 20.7314 21.5996 20.4 21.5996H3.6C3.26863 21.5996 3 21.331 3 20.9996Z" stroke="black" stroke-width="1.5"/>
</svg>
