<svg width="24" height="25" viewBox="0 0 24 25" fill="none" xmlns="http://www.w3.org/2000/svg">
<path fill-rule="evenodd" clip-rule="evenodd" d="M7 14.2998H8C9.63573 14.2998 11.088 15.0853 12.0002 16.2996C12.864 15.1492 14.2129 14.3837 15.7433 14.3063L16 14.2998H17C19.7614 14.2998 22 16.5384 22 19.2998C22 19.8521 21.5523 20.2998 21 20.2998C20.4872 20.2998 20.0645 19.9138 20.0067 19.4164L19.9949 19.1235C19.907 17.6071 18.6928 16.3928 17.1763 16.3049L17 16.2998H16C14.3431 16.2998 13 17.643 13 19.2998C13 19.8126 12.614 20.2353 12.1166 20.2931L12 20.2998C11.4872 20.2998 11.0645 19.9138 11.0067 19.4164L10.9949 19.1235C10.907 17.6071 9.69275 16.3928 8.17627 16.3049L8 16.2998H7C5.34315 16.2998 4 17.643 4 19.2998C4 19.8521 3.55228 20.2998 3 20.2998C2.44772 20.2998 2 19.8521 2 19.2998C2 16.611 4.12231 14.418 6.78311 14.3044L7 14.2998ZM7 4.2998C9.20914 4.2998 11 6.09067 11 8.2998C11 10.5089 9.20914 12.2998 7 12.2998C4.79086 12.2998 3 10.5089 3 8.2998C3 6.09067 4.79086 4.2998 7 4.2998ZM17 4.2998C19.2091 4.2998 21 6.09067 21 8.2998C21 10.5089 19.2091 12.2998 17 12.2998C14.7909 12.2998 13 10.5089 13 8.2998C13 6.09067 14.7909 4.2998 17 4.2998ZM7 6.2998C5.89543 6.2998 5 7.19524 5 8.2998C5 9.40437 5.89543 10.2998 7 10.2998C8.10457 10.2998 9 9.40437 9 8.2998C9 7.19524 8.10457 6.2998 7 6.2998ZM17 6.2998C15.8954 6.2998 15 7.19524 15 8.2998C15 9.40437 15.8954 10.2998 17 10.2998C18.1046 10.2998 19 9.40437 19 8.2998C19 7.19524 18.1046 6.2998 17 6.2998Z" fill="white"/>
</svg>
