<svg width="20" height="20" viewBox="0 0 20 20" fill="none" xmlns="http://www.w3.org/2000/svg">
<path d="M7.7998 1H12.2002C13.5213 1 14.4561 1.00074 15.1885 1.05664C15.8201 1.10485 16.2384 1.19031 16.5674 1.32129L16.7031 1.38086C17.4926 1.75239 18.1379 2.37083 18.542 3.14062L18.6191 3.29688C18.7837 3.6466 18.8883 4.0896 18.9434 4.81152C18.9993 5.54394 19 6.47869 19 7.7998V12.2002C19 13.5213 18.9993 14.4561 18.9434 15.1885C18.8951 15.8201 18.8097 16.2384 18.6787 16.5674L18.6191 16.7031C18.2476 17.4926 17.6292 18.1379 16.8594 18.542L16.7031 18.6191C16.3534 18.7837 15.9104 18.8883 15.1885 18.9434C14.4561 18.9993 13.5213 19 12.2002 19H7.7998C6.47869 19 5.54394 18.9993 4.81152 18.9434C4.17987 18.8951 3.76155 18.8097 3.43262 18.6787L3.29688 18.6191C2.50736 18.2476 1.86209 17.6292 1.45801 16.8594L1.38086 16.7031C1.21629 16.3534 1.11174 15.9104 1.05664 15.1885C1.00074 14.4561 1 13.5213 1 12.2002V7.7998C1 6.47869 1.00074 5.54394 1.05664 4.81152C1.10485 4.17987 1.19031 3.76155 1.32129 3.43262L1.38086 3.29688C1.75239 2.50736 2.37083 1.86209 3.14062 1.45801L3.29688 1.38086C3.6466 1.21629 4.0896 1.11174 4.81152 1.05664C5.54394 1.00074 6.47869 1 7.7998 1Z" stroke="white" stroke-width="2" stroke-linecap="round" stroke-linejoin="round"/>
</svg>
